<svg xmlns="http://www.w3.org/2000/svg" class="editor-view__logo-preview" data-v-04588dbe="" data-v-0a059b40="" width="363.4400329589844" height="83" viewBox="0 0 363.4400329589844 83"><svg id="mark" viewBox="0 0 32 32" width="83" height="83" x="0" y="0" data-v-04588dbe="" style="fill: rgb(120, 0, 0);"><rect x="0" y="0" width="100%" height="100%" fill="none" data-v-04588dbe=""></rect><g data-v-04588dbe=""><title xmlns="http://www.w3.org/2000/svg">Resort</title><g xmlns="http://www.w3.org/2000/svg"><path d="M29.78,15.63l-5.94,7.31,3.28,3.36a1,1,0,0,1-1.44,1.4L22.08,24H7.32l-3.6,3.7a1,1,0,0,1-1.44-1.4l3.9-4A1,1,0,0,1,6.9,22H22l1.63-2H17.3a1,1,0,1,1,0-2h7.8a.8.8,0,0,1,.15,0l3-3.66a1,1,0,1,1,1.56,1.26Z"></path><path d="M15,26v1a1,1,0,0,1-2,0V26a1,1,0,0,1,2,0Z"></path><path d="M6,15h7v5a1,1,0,0,0,2,0V15h7a1,1,0,0,0,1-1V13A9,9,0,0,0,5,13v1A1,1,0,0,0,6,15Zm8-9a7,7,0,0,1,7,7H7A7,7,0,0,1,14,6Z"></path></g></g></svg><svg id="name" viewBox="0 0 247.6179962158203 44.20600128173828" width="247.618" height="44.206001957308935" x="99" y="9.785002708435059" data-v-04588dbe="" style="fill: rgb(255, 0, 0);"><rect x="0" y="0" width="100%" height="100%" fill="none" data-v-04588dbe=""></rect><g data-v-04588dbe=""><path xmlns="http://www.w3.org/2000/svg" d="M0 23.60L0 23.60Q0 20.98 0.85 18.65Q1.70 16.33 3.31 14.60Q4.92 12.88 7.22 11.87Q9.52 10.86 12.47 10.86L12.47 10.86Q14.40 10.86 16.01 11.20Q17.62 11.55 19.14 12.19L19.14 12.19L17.71 17.66Q16.74 17.30 15.59 17.02Q14.44 16.74 13.02 16.74L13.02 16.74Q9.98 16.74 8.49 18.63Q6.99 20.52 6.99 23.60L6.99 23.60Q6.99 26.86 8.39 28.66Q9.80 30.45 13.29 30.45L13.29 30.45Q14.54 30.45 15.96 30.22Q17.39 29.99 18.58 29.49L18.58 29.49L19.55 35.10Q18.35 35.60 16.56 35.97Q14.77 36.34 12.60 36.34L12.60 36.34Q9.29 36.34 6.90 35.35Q4.51 34.36 2.97 32.66Q1.43 30.96 0.71 28.63Q0 26.31 0 23.60ZM31.00 35.70L24.15 35.70L24.15 1.10L31.00 0L31.00 11.59Q31.69 11.36 32.77 11.15Q33.86 10.95 34.87 10.95L34.87 10.95Q37.81 10.95 39.77 11.75Q41.72 12.56 42.89 14.03Q44.07 15.50 44.55 17.53Q45.03 19.55 45.03 22.03L45.03 22.03L45.03 35.70L38.18 35.70L38.18 22.86Q38.18 19.55 37.33 18.17Q36.48 16.79 34.18 16.79L34.18 16.79Q33.26 16.79 32.45 16.95Q31.65 17.11 31.00 17.30L31.00 17.30L31.00 35.70ZM60.49 30.91L60.49 30.91Q61.50 30.91 62.42 30.87Q63.34 30.82 63.89 30.73L63.89 30.73L63.89 25.53Q63.48 25.44 62.65 25.35Q61.82 25.25 61.13 25.25L61.13 25.25Q60.17 25.25 59.32 25.37Q58.47 25.48 57.82 25.81Q57.18 26.13 56.81 26.68Q56.44 27.23 56.44 28.06L56.44 28.06Q56.44 29.67 57.52 30.29Q58.60 30.91 60.49 30.91ZM59.94 10.86L59.94 10.86Q62.97 10.86 65.00 11.55Q67.02 12.24 68.24 13.52Q69.46 14.81 69.97 16.65Q70.47 18.49 70.47 20.75L70.47 20.75L70.47 35.01Q69 35.33 66.38 35.77Q63.76 36.20 60.03 36.20L60.03 36.20Q57.68 36.20 55.77 35.79Q53.87 35.37 52.49 34.43Q51.11 33.49 50.37 31.97Q49.63 30.45 49.63 28.24L49.63 28.24Q49.63 26.13 50.48 24.66Q51.34 23.18 52.76 22.31Q54.19 21.44 56.03 21.04Q57.87 20.65 59.85 20.65L59.85 20.65Q61.18 20.65 62.22 20.77Q63.25 20.88 63.89 21.07L63.89 21.07L63.89 20.42Q63.89 18.68 62.84 17.62Q61.78 16.56 59.16 16.56L59.16 16.56Q57.41 16.56 55.71 16.81Q54.00 17.07 52.76 17.53L52.76 17.53L51.89 12.01Q52.49 11.82 53.38 11.61Q54.28 11.41 55.34 11.25Q56.40 11.09 57.57 10.97Q58.74 10.86 59.94 10.86ZM92.41 11.91L91.26 17.57Q90.34 17.34 89.10 17.09Q87.86 16.84 86.43 16.84L86.43 16.84Q85.79 16.84 84.89 16.95Q84.00 17.07 83.54 17.20L83.54 17.20L83.54 35.70L76.68 35.70L76.68 12.79Q78.52 12.14 81.03 11.57Q83.54 10.99 86.62 10.99L86.62 10.99Q87.17 10.99 87.95 11.06Q88.73 11.13 89.52 11.25Q90.30 11.36 91.08 11.52Q91.86 11.68 92.41 11.91L92.41 11.91ZM109.39 35.70L109.39 22.86Q109.39 19.55 108.54 18.17Q107.69 16.79 105.62 16.79L105.62 16.79Q104.97 16.79 104.28 16.86Q103.59 16.93 102.95 17.02L102.95 17.02L102.95 35.70L96.09 35.70L96.09 12.33Q96.97 12.10 98.14 11.84Q99.31 11.59 100.63 11.38Q101.94 11.18 103.32 11.06Q104.70 10.95 106.03 10.95L106.03 10.95Q108.65 10.95 110.28 11.61Q111.92 12.28 112.98 13.20L112.98 13.20Q114.45 12.14 116.36 11.55Q118.27 10.95 119.88 10.95L119.88 10.95Q122.77 10.95 124.64 11.75Q126.50 12.56 127.60 14.03Q128.71 15.50 129.12 17.53Q129.54 19.55 129.54 22.03L129.54 22.03L129.54 35.70L122.68 35.70L122.68 22.86Q122.68 19.55 121.83 18.17Q120.98 16.79 118.91 16.79L118.91 16.79Q118.36 16.79 117.37 17.07Q116.38 17.34 115.74 17.76L115.74 17.76Q116.06 18.81 116.15 19.99Q116.24 21.16 116.24 22.49L116.24 22.49L116.24 35.70L109.39 35.70ZM151.25 23.78L151.25 23.78Q151.25 20.61 149.82 18.70Q148.40 16.79 145.59 16.79L145.59 16.79Q144.67 16.79 143.89 16.86Q143.11 16.93 142.60 17.02L142.60 17.02L142.60 29.39Q143.24 29.81 144.28 30.08Q145.31 30.36 146.37 30.36L146.37 30.36Q151.25 30.36 151.25 23.78ZM158.24 23.60L158.24 23.60Q158.24 26.40 157.55 28.70Q156.86 31.00 155.53 32.66Q154.19 34.32 152.21 35.24Q150.24 36.16 147.66 36.16L147.66 36.16Q146.23 36.16 144.99 35.88Q143.75 35.60 142.60 35.10L142.60 35.10L142.60 44.21L135.75 44.21L135.75 12.33Q136.67 12.05 137.86 11.80Q139.06 11.55 140.37 11.36Q141.68 11.18 143.04 11.06Q144.39 10.95 145.64 10.95L145.64 10.95Q148.63 10.95 150.97 11.84Q153.32 12.74 154.93 14.38Q156.54 16.01 157.39 18.35Q158.24 20.70 158.24 23.60ZM174.16 30.50L173.19 36.16Q170.20 36.11 168.34 35.51Q166.47 34.91 165.39 33.83Q164.31 32.75 163.92 31.21Q163.53 29.67 163.53 27.74L163.53 27.74L163.53 1.10L170.38 0L170.38 26.36Q170.38 27.28 170.52 28.01Q170.66 28.75 171.05 29.26Q171.44 29.76 172.18 30.08Q172.91 30.41 174.16 30.50L174.16 30.50ZM188.00 30.91L188.00 30.91Q189.01 30.91 189.93 30.87Q190.85 30.82 191.41 30.73L191.41 30.73L191.41 25.53Q190.99 25.44 190.16 25.35Q189.34 25.25 188.65 25.25L188.65 25.25Q187.68 25.25 186.83 25.37Q185.98 25.48 185.33 25.81Q184.69 26.13 184.32 26.68Q183.95 27.23 183.95 28.06L183.95 28.06Q183.95 29.67 185.03 30.29Q186.12 30.91 188.00 30.91ZM187.45 10.86L187.45 10.86Q190.49 10.86 192.51 11.55Q194.53 12.24 195.75 13.52Q196.97 14.81 197.48 16.65Q197.98 18.49 197.98 20.75L197.98 20.75L197.98 35.01Q196.51 35.33 193.89 35.77Q191.27 36.20 187.54 36.20L187.54 36.20Q185.20 36.20 183.29 35.79Q181.38 35.37 180.00 34.43Q178.62 33.49 177.88 31.97Q177.15 30.45 177.15 28.24L177.15 28.24Q177.15 26.13 178.00 24.66Q178.85 23.18 180.27 22.31Q181.70 21.44 183.54 21.04Q185.38 20.65 187.36 20.65L187.36 20.65Q188.69 20.65 189.73 20.77Q190.76 20.88 191.41 21.07L191.41 21.07L191.41 20.42Q191.41 18.68 190.35 17.62Q189.29 16.56 186.67 16.56L186.67 16.56Q184.92 16.56 183.22 16.81Q181.52 17.07 180.27 17.53L180.27 17.53L179.40 12.01Q180.00 11.82 180.90 11.61Q181.79 11.41 182.85 11.25Q183.91 11.09 185.08 10.97Q186.25 10.86 187.45 10.86ZM203.04 23.60L203.04 23.60Q203.04 20.98 203.89 18.65Q204.75 16.33 206.36 14.60Q207.97 12.88 210.27 11.87Q212.57 10.86 215.51 10.86L215.51 10.86Q217.44 10.86 219.05 11.20Q220.66 11.55 222.18 12.19L222.18 12.19L220.75 17.66Q219.79 17.30 218.64 17.02Q217.49 16.74 216.06 16.74L216.06 16.74Q213.03 16.74 211.53 18.63Q210.04 20.52 210.04 23.60L210.04 23.60Q210.04 26.86 211.44 28.66Q212.84 30.45 216.34 30.45L216.34 30.45Q217.58 30.45 219.01 30.22Q220.43 29.99 221.63 29.49L221.63 29.49L222.59 35.10Q221.40 35.60 219.60 35.97Q217.81 36.34 215.65 36.34L215.65 36.34Q212.34 36.34 209.94 35.35Q207.55 34.36 206.01 32.66Q204.47 30.96 203.76 28.63Q203.04 26.31 203.04 23.60ZM224.89 23.78L224.89 23.78Q224.89 20.56 225.88 18.15Q226.87 15.73 228.48 14.12Q230.09 12.51 232.18 11.68Q234.28 10.86 236.49 10.86L236.49 10.86Q241.64 10.86 244.63 14.01Q247.62 17.16 247.62 23.28L247.62 23.28Q247.62 23.87 247.57 24.59Q247.53 25.30 247.48 25.85L247.48 25.85L231.93 25.85Q232.16 27.97 233.91 29.21Q235.66 30.45 238.60 30.45L238.60 30.45Q240.49 30.45 242.30 30.11Q244.12 29.76 245.27 29.26L245.27 29.26L246.19 34.82Q245.64 35.10 244.72 35.37Q243.80 35.65 242.67 35.86Q241.55 36.06 240.26 36.20Q238.97 36.34 237.68 36.34L237.68 36.34Q234.42 36.34 232.00 35.37Q229.59 34.41 228.00 32.73Q226.41 31.05 225.65 28.75Q224.89 26.45 224.89 23.78ZM231.93 21.16L240.99 21.16Q240.95 20.29 240.69 19.46Q240.44 18.63 239.91 17.99Q239.38 17.34 238.58 16.93Q237.77 16.51 236.58 16.51L236.58 16.51Q235.43 16.51 234.60 16.90Q233.77 17.30 233.22 17.94Q232.67 18.58 232.37 19.43Q232.07 20.29 231.93 21.16L231.93 21.16Z"></path></g></svg><svg id="slogan" viewBox="0 0 264.44000244140625 19.219999313354492" width="264.44000000000005" height="19.219999135908473" x="99" y="57.995001792907715" data-v-04588dbe="" style="fill: rgb(0, 0, 0);"><rect x="0" y="0" width="100%" height="100%" fill="none" data-v-04588dbe=""></rect><g data-v-04588dbe=""><path xmlns="http://www.w3.org/2000/svg" d="M6.92 15.80L6.92 15.80Q3.54 15.80 1.77 13.92Q0 12.04 0 8.58L0 8.58Q0 6.86 0.54 5.51Q1.08 4.16 2.02 3.23Q2.96 2.30 4.26 1.82Q5.56 1.34 7.08 1.34L7.08 1.34Q7.96 1.34 8.68 1.47Q9.40 1.60 9.94 1.77Q10.48 1.94 10.84 2.12Q11.20 2.30 11.36 2.40L11.36 2.40L10.46 4.92Q9.82 4.58 8.97 4.34Q8.12 4.10 7.04 4.10L7.04 4.10Q6.32 4.10 5.63 4.34Q4.94 4.58 4.41 5.11Q3.88 5.64 3.56 6.48Q3.24 7.32 3.24 8.52L3.24 8.52Q3.24 9.48 3.45 10.31Q3.66 11.14 4.13 11.74Q4.60 12.34 5.36 12.69Q6.12 13.04 7.20 13.04L7.20 13.04Q7.88 13.04 8.42 12.96Q8.96 12.88 9.38 12.77Q9.80 12.66 10.12 12.52Q10.44 12.38 10.70 12.26L10.70 12.26L11.56 14.76Q10.90 15.16 9.70 15.48Q8.50 15.80 6.92 15.80ZM16.34 15.52L13.36 15.52L13.36 0.48L16.34 0L16.34 5.04Q16.64 4.94 17.11 4.85Q17.58 4.76 18.02 4.76L18.02 4.76Q19.30 4.76 20.15 5.11Q21 5.46 21.51 6.10Q22.02 6.74 22.23 7.62Q22.44 8.50 22.44 9.58L22.44 9.58L22.44 15.52L19.46 15.52L19.46 9.94Q19.46 8.50 19.09 7.90Q18.72 7.30 17.72 7.30L17.72 7.30Q17.32 7.30 16.97 7.37Q16.62 7.44 16.34 7.52L16.34 7.52L16.34 15.52ZM29.16 13.44L29.16 13.44Q29.60 13.44 30 13.42Q30.40 13.40 30.64 13.36L30.64 13.36L30.64 11.10Q30.46 11.06 30.10 11.02Q29.74 10.98 29.44 10.98L29.44 10.98Q29.02 10.98 28.65 11.03Q28.28 11.08 28 11.22Q27.72 11.36 27.56 11.60Q27.40 11.84 27.40 12.20L27.40 12.20Q27.40 12.90 27.87 13.17Q28.34 13.44 29.16 13.44ZM28.92 4.72L28.92 4.72Q30.24 4.72 31.12 5.02Q32 5.32 32.53 5.88Q33.06 6.44 33.28 7.24Q33.50 8.04 33.50 9.02L33.50 9.02L33.50 15.22Q32.86 15.36 31.72 15.55Q30.58 15.74 28.96 15.74L28.96 15.74Q27.94 15.74 27.11 15.56Q26.28 15.38 25.68 14.97Q25.08 14.56 24.76 13.90Q24.44 13.24 24.44 12.28L24.44 12.28Q24.44 11.36 24.81 10.72Q25.18 10.08 25.80 9.70Q26.42 9.32 27.22 9.15Q28.02 8.98 28.88 8.98L28.88 8.98Q29.46 8.98 29.91 9.03Q30.36 9.08 30.64 9.16L30.64 9.16L30.64 8.88Q30.64 8.12 30.18 7.66Q29.72 7.20 28.58 7.20L28.58 7.20Q27.82 7.20 27.08 7.31Q26.34 7.42 25.80 7.62L25.80 7.62L25.42 5.22Q25.68 5.14 26.07 5.05Q26.46 4.96 26.92 4.89Q27.38 4.82 27.89 4.77Q28.40 4.72 28.92 4.72ZM43.04 5.18L42.54 7.64Q42.14 7.54 41.60 7.43Q41.06 7.32 40.44 7.32L40.44 7.32Q40.16 7.32 39.77 7.37Q39.38 7.42 39.18 7.48L39.18 7.48L39.18 15.52L36.20 15.52L36.20 5.56Q37.00 5.28 38.09 5.03Q39.18 4.78 40.52 4.78L40.52 4.78Q40.76 4.78 41.10 4.81Q41.44 4.84 41.78 4.89Q42.12 4.94 42.46 5.01Q42.80 5.08 43.04 5.18L43.04 5.18ZM50.42 15.52L50.42 9.94Q50.42 8.50 50.05 7.90Q49.68 7.30 48.78 7.30L48.78 7.30Q48.50 7.30 48.20 7.33Q47.90 7.36 47.62 7.40L47.62 7.40L47.62 15.52L44.64 15.52L44.64 5.36Q45.02 5.26 45.53 5.15Q46.04 5.04 46.61 4.95Q47.18 4.86 47.78 4.81Q48.38 4.76 48.96 4.76L48.96 4.76Q50.10 4.76 50.81 5.05Q51.52 5.34 51.98 5.74L51.98 5.74Q52.62 5.28 53.45 5.02Q54.28 4.76 54.98 4.76L54.98 4.76Q56.24 4.76 57.05 5.11Q57.86 5.46 58.34 6.10Q58.82 6.74 59 7.62Q59.18 8.50 59.18 9.58L59.18 9.58L59.18 15.52L56.20 15.52L56.20 9.94Q56.20 8.50 55.83 7.90Q55.46 7.30 54.56 7.30L54.56 7.30Q54.32 7.30 53.89 7.42Q53.46 7.54 53.18 7.72L53.18 7.72Q53.32 8.18 53.36 8.69Q53.40 9.20 53.40 9.78L53.40 9.78L53.40 15.52L50.42 15.52ZM68.62 10.34L68.62 10.34Q68.62 8.96 68 8.13Q67.38 7.30 66.16 7.30L66.16 7.30Q65.76 7.30 65.42 7.33Q65.08 7.36 64.86 7.40L64.86 7.40L64.86 12.78Q65.14 12.96 65.59 13.08Q66.04 13.20 66.50 13.20L66.50 13.20Q68.62 13.20 68.62 10.34ZM71.66 10.26L71.66 10.26Q71.66 11.48 71.36 12.48Q71.06 13.48 70.48 14.20Q69.90 14.92 69.04 15.32Q68.18 15.72 67.06 15.72L67.06 15.72Q66.44 15.72 65.90 15.60Q65.36 15.48 64.86 15.26L64.86 15.26L64.86 19.22L61.88 19.22L61.88 5.36Q62.28 5.24 62.80 5.13Q63.32 5.02 63.89 4.94Q64.46 4.86 65.05 4.81Q65.64 4.76 66.18 4.76L66.18 4.76Q67.48 4.76 68.50 5.15Q69.52 5.54 70.22 6.25Q70.92 6.96 71.29 7.98Q71.66 9 71.66 10.26ZM78.58 13.26L78.16 15.72Q76.86 15.70 76.05 15.44Q75.24 15.18 74.77 14.71Q74.30 14.24 74.13 13.57Q73.96 12.90 73.96 12.06L73.96 12.06L73.96 0.48L76.94 0L76.94 11.46Q76.94 11.86 77 12.18Q77.06 12.50 77.23 12.72Q77.40 12.94 77.72 13.08Q78.04 13.22 78.58 13.26L78.58 13.26ZM84.60 13.44L84.60 13.44Q85.04 13.44 85.44 13.42Q85.84 13.40 86.08 13.36L86.08 13.36L86.08 11.10Q85.90 11.06 85.54 11.02Q85.18 10.98 84.88 10.98L84.88 10.98Q84.46 10.98 84.09 11.03Q83.72 11.08 83.44 11.22Q83.16 11.36 83 11.60Q82.84 11.84 82.84 12.20L82.84 12.20Q82.84 12.90 83.31 13.17Q83.78 13.44 84.60 13.44ZM84.36 4.72L84.36 4.72Q85.68 4.72 86.56 5.02Q87.44 5.32 87.97 5.88Q88.50 6.44 88.72 7.24Q88.94 8.04 88.94 9.02L88.94 9.02L88.94 15.22Q88.30 15.36 87.16 15.55Q86.02 15.74 84.40 15.74L84.40 15.74Q83.38 15.74 82.55 15.56Q81.72 15.38 81.12 14.97Q80.52 14.56 80.20 13.90Q79.88 13.24 79.88 12.28L79.88 12.28Q79.88 11.36 80.25 10.72Q80.62 10.08 81.24 9.70Q81.86 9.32 82.66 9.15Q83.46 8.98 84.32 8.98L84.32 8.98Q84.90 8.98 85.35 9.03Q85.80 9.08 86.08 9.16L86.08 9.16L86.08 8.88Q86.08 8.12 85.62 7.66Q85.16 7.20 84.02 7.20L84.02 7.20Q83.26 7.20 82.52 7.31Q81.78 7.42 81.24 7.62L81.24 7.62L80.86 5.22Q81.12 5.14 81.51 5.05Q81.90 4.96 82.36 4.89Q82.82 4.82 83.33 4.77Q83.84 4.72 84.36 4.72ZM91.14 10.26L91.14 10.26Q91.14 9.12 91.51 8.11Q91.88 7.10 92.58 6.35Q93.28 5.60 94.28 5.16Q95.28 4.72 96.56 4.72L96.56 4.72Q97.40 4.72 98.10 4.87Q98.80 5.02 99.46 5.30L99.46 5.30L98.84 7.68Q98.42 7.52 97.92 7.40Q97.42 7.28 96.80 7.28L96.80 7.28Q95.48 7.28 94.83 8.10Q94.18 8.92 94.18 10.26L94.18 10.26Q94.18 11.68 94.79 12.46Q95.40 13.24 96.92 13.24L96.92 13.24Q97.46 13.24 98.08 13.14Q98.70 13.04 99.22 12.82L99.22 12.82L99.64 15.26Q99.12 15.48 98.34 15.64Q97.56 15.80 96.62 15.80L96.62 15.80Q95.18 15.80 94.14 15.37Q93.10 14.94 92.43 14.20Q91.76 13.46 91.45 12.45Q91.14 11.44 91.14 10.26ZM100.64 10.34L100.64 10.34Q100.64 8.94 101.07 7.89Q101.50 6.84 102.20 6.14Q102.90 5.44 103.81 5.08Q104.72 4.72 105.68 4.72L105.68 4.72Q107.92 4.72 109.22 6.09Q110.52 7.46 110.52 10.12L110.52 10.12Q110.52 10.38 110.50 10.69Q110.48 11 110.46 11.24L110.46 11.24L103.70 11.24Q103.80 12.16 104.56 12.70Q105.32 13.24 106.60 13.24L106.60 13.24Q107.42 13.24 108.21 13.09Q109 12.94 109.50 12.72L109.50 12.72L109.90 15.14Q109.66 15.26 109.26 15.38Q108.86 15.50 108.37 15.59Q107.88 15.68 107.32 15.74Q106.76 15.80 106.20 15.80L106.20 15.80Q104.78 15.80 103.73 15.38Q102.68 14.96 101.99 14.23Q101.30 13.50 100.97 12.50Q100.64 11.50 100.64 10.34ZM103.70 9.20L107.64 9.20Q107.62 8.82 107.51 8.46Q107.40 8.10 107.17 7.82Q106.94 7.54 106.59 7.36Q106.24 7.18 105.72 7.18L105.72 7.18Q105.22 7.18 104.86 7.35Q104.50 7.52 104.26 7.80Q104.02 8.08 103.89 8.45Q103.76 8.82 103.70 9.20L103.70 9.20ZM116.72 10.90L116.72 8.20L122.52 8.20L122.52 10.90L116.72 10.90ZM133.20 13.14L133.20 13.14Q133.86 13.14 134.29 13.03Q134.72 12.92 134.98 12.73Q135.24 12.54 135.34 12.28Q135.44 12.02 135.44 11.70L135.44 11.70Q135.44 11.02 134.80 10.57Q134.16 10.12 132.60 9.60L132.60 9.60Q131.92 9.36 131.24 9.05Q130.56 8.74 130.02 8.27Q129.48 7.80 129.14 7.13Q128.80 6.46 128.80 5.50L128.80 5.50Q128.80 4.54 129.16 3.77Q129.52 3 130.18 2.46Q130.84 1.92 131.78 1.63Q132.72 1.34 133.90 1.34L133.90 1.34Q135.30 1.34 136.32 1.64Q137.34 1.94 138.00 2.30L138.00 2.30L137.10 4.76Q136.52 4.46 135.81 4.23Q135.10 4 134.10 4L134.10 4Q132.98 4 132.49 4.31Q132.00 4.62 132.00 5.26L132.00 5.26Q132.00 5.64 132.18 5.90Q132.36 6.16 132.69 6.37Q133.02 6.58 133.45 6.75Q133.88 6.92 134.40 7.10L134.40 7.10Q135.48 7.50 136.28 7.89Q137.08 8.28 137.61 8.80Q138.14 9.32 138.40 10.02Q138.66 10.72 138.66 11.72L138.66 11.72Q138.66 13.66 137.30 14.73Q135.94 15.80 133.20 15.80L133.20 15.80Q132.28 15.80 131.54 15.69Q130.80 15.58 130.23 15.42Q129.66 15.26 129.25 15.08Q128.84 14.90 128.56 14.74L128.56 14.74L129.44 12.26Q130.06 12.60 130.97 12.87Q131.88 13.14 133.20 13.14ZM140.76 11.22L140.76 2.38L143.74 1.90L143.74 5L147.32 5L147.32 7.48L143.74 7.48L143.74 11.18Q143.74 12.12 144.07 12.68Q144.40 13.24 145.40 13.24L145.40 13.24Q145.88 13.24 146.39 13.15Q146.90 13.06 147.32 12.90L147.32 12.90L147.74 15.22Q147.20 15.44 146.54 15.60Q145.88 15.76 144.92 15.76L144.92 15.76Q143.70 15.76 142.90 15.43Q142.10 15.10 141.62 14.51Q141.14 13.92 140.95 13.08Q140.76 12.24 140.76 11.22L140.76 11.22ZM153.36 13.44L153.36 13.44Q153.80 13.44 154.20 13.42Q154.60 13.40 154.84 13.36L154.84 13.36L154.84 11.10Q154.66 11.06 154.30 11.02Q153.94 10.98 153.64 10.98L153.64 10.98Q153.22 10.98 152.85 11.03Q152.48 11.08 152.20 11.22Q151.92 11.36 151.76 11.60Q151.60 11.84 151.60 12.20L151.60 12.20Q151.60 12.90 152.07 13.17Q152.54 13.44 153.36 13.44ZM153.12 4.72L153.12 4.72Q154.44 4.72 155.32 5.02Q156.20 5.32 156.73 5.88Q157.26 6.44 157.48 7.24Q157.70 8.04 157.70 9.02L157.70 9.02L157.70 15.22Q157.06 15.36 155.92 15.55Q154.78 15.74 153.16 15.74L153.16 15.74Q152.14 15.74 151.31 15.56Q150.48 15.38 149.88 14.97Q149.28 14.56 148.96 13.90Q148.64 13.24 148.64 12.28L148.64 12.28Q148.64 11.36 149.01 10.72Q149.38 10.08 150.00 9.70Q150.62 9.32 151.42 9.15Q152.22 8.98 153.08 8.98L153.08 8.98Q153.66 8.98 154.11 9.03Q154.56 9.08 154.84 9.16L154.84 9.16L154.84 8.88Q154.84 8.12 154.38 7.66Q153.92 7.20 152.78 7.20L152.78 7.20Q152.02 7.20 151.28 7.31Q150.54 7.42 150.00 7.62L150.00 7.62L149.62 5.22Q149.88 5.14 150.27 5.05Q150.66 4.96 151.12 4.89Q151.58 4.82 152.09 4.77Q152.60 4.72 153.12 4.72ZM166.40 5L169.48 5Q168.58 8.04 167.60 10.70Q166.62 13.36 165.46 15.86L165.46 15.86Q165.04 16.76 164.62 17.39Q164.20 18.02 163.70 18.43Q163.20 18.84 162.57 19.03Q161.94 19.22 161.10 19.22L161.10 19.22Q160.40 19.22 159.81 19.09Q159.22 18.96 158.84 18.80L158.84 18.80L159.36 16.42Q159.82 16.58 160.18 16.64Q160.54 16.70 160.94 16.70L160.94 16.70Q161.74 16.70 162.17 16.27Q162.60 15.84 162.90 15.08L162.90 15.08Q161.88 13.08 160.86 10.59Q159.84 8.10 158.94 5L158.94 5L162.10 5Q162.30 5.78 162.57 6.69Q162.84 7.60 163.14 8.53Q163.44 9.46 163.75 10.34Q164.06 11.22 164.34 11.94L164.34 11.94Q164.60 11.22 164.88 10.34Q165.16 9.46 165.43 8.53Q165.70 7.60 165.95 6.69Q166.20 5.78 166.40 5L166.40 5ZM182.40 15.80L182.40 15.80Q179.02 15.80 177.25 13.92Q175.48 12.04 175.48 8.58L175.48 8.58Q175.48 6.86 176.02 5.51Q176.56 4.16 177.50 3.23Q178.44 2.30 179.74 1.82Q181.04 1.34 182.56 1.34L182.56 1.34Q183.44 1.34 184.16 1.47Q184.88 1.60 185.42 1.77Q185.96 1.94 186.32 2.12Q186.68 2.30 186.84 2.40L186.84 2.40L185.94 4.92Q185.30 4.58 184.45 4.34Q183.60 4.10 182.52 4.10L182.52 4.10Q181.80 4.10 181.11 4.34Q180.42 4.58 179.89 5.11Q179.36 5.64 179.04 6.48Q178.72 7.32 178.72 8.52L178.72 8.52Q178.72 9.48 178.93 10.31Q179.14 11.14 179.61 11.74Q180.08 12.34 180.84 12.69Q181.60 13.04 182.68 13.04L182.68 13.04Q183.36 13.04 183.90 12.96Q184.44 12.88 184.86 12.77Q185.28 12.66 185.60 12.52Q185.92 12.38 186.18 12.26L186.18 12.26L187.04 14.76Q186.38 15.16 185.18 15.48Q183.98 15.80 182.40 15.80ZM191.82 15.52L188.84 15.52L188.84 0.48L191.82 0L191.82 5.04Q192.12 4.94 192.59 4.85Q193.06 4.76 193.50 4.76L193.50 4.76Q194.78 4.76 195.63 5.11Q196.48 5.46 196.99 6.10Q197.50 6.74 197.71 7.62Q197.92 8.50 197.92 9.58L197.92 9.58L197.92 15.52L194.94 15.52L194.94 9.94Q194.94 8.50 194.57 7.90Q194.20 7.30 193.20 7.30L193.20 7.30Q192.80 7.30 192.45 7.37Q192.10 7.44 191.82 7.52L191.82 7.52L191.82 15.52ZM204.64 13.44L204.64 13.44Q205.08 13.44 205.48 13.42Q205.88 13.40 206.12 13.36L206.12 13.36L206.12 11.10Q205.94 11.06 205.58 11.02Q205.22 10.98 204.92 10.98L204.92 10.98Q204.50 10.98 204.13 11.03Q203.76 11.08 203.48 11.22Q203.20 11.36 203.04 11.60Q202.88 11.84 202.88 12.20L202.88 12.20Q202.88 12.90 203.35 13.17Q203.82 13.44 204.64 13.44ZM204.40 4.72L204.40 4.72Q205.72 4.72 206.60 5.02Q207.48 5.32 208.01 5.88Q208.54 6.44 208.76 7.24Q208.98 8.04 208.98 9.02L208.98 9.02L208.98 15.22Q208.34 15.36 207.20 15.55Q206.06 15.74 204.44 15.74L204.44 15.74Q203.42 15.74 202.59 15.56Q201.76 15.38 201.16 14.97Q200.56 14.56 200.24 13.90Q199.92 13.24 199.92 12.28L199.92 12.28Q199.92 11.36 200.29 10.72Q200.66 10.08 201.28 9.70Q201.90 9.32 202.70 9.15Q203.50 8.98 204.36 8.98L204.36 8.98Q204.94 8.98 205.39 9.03Q205.84 9.08 206.12 9.16L206.12 9.16L206.12 8.88Q206.12 8.12 205.66 7.66Q205.20 7.20 204.06 7.20L204.06 7.20Q203.30 7.20 202.56 7.31Q201.82 7.42 201.28 7.62L201.28 7.62L200.90 5.22Q201.16 5.14 201.55 5.05Q201.94 4.96 202.40 4.89Q202.86 4.82 203.37 4.77Q203.88 4.72 204.40 4.72ZM218.52 5.18L218.02 7.64Q217.62 7.54 217.08 7.43Q216.54 7.32 215.92 7.32L215.92 7.32Q215.64 7.32 215.25 7.37Q214.86 7.42 214.66 7.48L214.66 7.48L214.66 15.52L211.68 15.52L211.68 5.56Q212.48 5.28 213.57 5.03Q214.66 4.78 216 4.78L216 4.78Q216.24 4.78 216.58 4.81Q216.92 4.84 217.26 4.89Q217.60 4.94 217.94 5.01Q218.28 5.08 218.52 5.18L218.52 5.18ZM225.90 15.52L225.90 9.94Q225.90 8.50 225.53 7.90Q225.16 7.30 224.26 7.30L224.26 7.30Q223.98 7.30 223.68 7.33Q223.38 7.36 223.10 7.40L223.10 7.40L223.10 15.52L220.12 15.52L220.12 5.36Q220.50 5.26 221.01 5.15Q221.52 5.04 222.09 4.95Q222.66 4.86 223.26 4.81Q223.86 4.76 224.44 4.76L224.44 4.76Q225.58 4.76 226.29 5.05Q227 5.34 227.46 5.74L227.46 5.74Q228.10 5.28 228.93 5.02Q229.76 4.76 230.46 4.76L230.46 4.76Q231.72 4.76 232.53 5.11Q233.34 5.46 233.82 6.10Q234.30 6.74 234.48 7.62Q234.66 8.50 234.66 9.58L234.66 9.58L234.66 15.52L231.68 15.52L231.68 9.94Q231.68 8.50 231.31 7.90Q230.94 7.30 230.04 7.30L230.04 7.30Q229.80 7.30 229.37 7.42Q228.94 7.54 228.66 7.72L228.66 7.72Q228.80 8.18 228.84 8.69Q228.88 9.20 228.88 9.78L228.88 9.78L228.88 15.52L225.90 15.52ZM236.86 10.34L236.86 10.34Q236.86 8.94 237.29 7.89Q237.72 6.84 238.42 6.14Q239.12 5.44 240.03 5.08Q240.94 4.72 241.90 4.72L241.90 4.72Q244.14 4.72 245.44 6.09Q246.74 7.46 246.74 10.12L246.74 10.12Q246.74 10.38 246.72 10.69Q246.70 11 246.68 11.24L246.68 11.24L239.92 11.24Q240.02 12.16 240.78 12.70Q241.54 13.24 242.82 13.24L242.82 13.24Q243.64 13.24 244.43 13.09Q245.22 12.94 245.72 12.72L245.72 12.72L246.12 15.14Q245.88 15.26 245.48 15.38Q245.08 15.50 244.59 15.59Q244.10 15.68 243.54 15.74Q242.98 15.80 242.42 15.80L242.42 15.80Q241 15.80 239.95 15.38Q238.90 14.96 238.21 14.23Q237.52 13.50 237.19 12.50Q236.86 11.50 236.86 10.34ZM239.92 9.20L243.86 9.20Q243.84 8.82 243.73 8.46Q243.62 8.10 243.39 7.82Q243.16 7.54 242.81 7.36Q242.46 7.18 241.94 7.18L241.94 7.18Q241.44 7.18 241.08 7.35Q240.72 7.52 240.48 7.80Q240.24 8.08 240.11 8.45Q239.98 8.82 239.92 9.20L239.92 9.20ZM251.58 10.18L251.58 10.18Q251.58 11.56 252.20 12.40Q252.82 13.24 254.04 13.24L254.04 13.24Q254.44 13.24 254.78 13.21Q255.12 13.18 255.34 13.14L255.34 13.14L255.34 7.72Q255.06 7.54 254.61 7.42Q254.16 7.30 253.70 7.30L253.70 7.30Q251.58 7.30 251.58 10.18ZM258.32 0L258.32 15.18Q257.92 15.30 257.40 15.41Q256.88 15.52 256.31 15.60Q255.74 15.68 255.15 15.73Q254.56 15.78 254.02 15.78L254.02 15.78Q252.72 15.78 251.70 15.40Q250.68 15.02 249.98 14.31Q249.28 13.60 248.91 12.59Q248.54 11.58 248.54 10.32L248.54 10.32Q248.54 9.04 248.86 8.01Q249.18 6.98 249.78 6.26Q250.38 5.54 251.25 5.16Q252.12 4.78 253.24 4.78L253.24 4.78Q253.86 4.78 254.35 4.90Q254.84 5.02 255.34 5.24L255.34 5.24L255.34 0.48L258.32 0ZM264.18 1.66L264.18 5.24Q264.18 6.86 264.06 8.26Q263.94 9.66 263.74 11.10L263.74 11.10L261.46 11.10Q261.26 9.66 261.13 8.26Q261 6.86 261 5.24L261 5.24L261 1.66L264.18 1.66ZM264.44 13.94L264.44 13.94Q264.44 14.82 263.87 15.30Q263.30 15.78 262.58 15.78L262.58 15.78Q261.86 15.78 261.29 15.30Q260.72 14.82 260.72 13.94L260.72 13.94Q260.72 13.06 261.29 12.58Q261.86 12.10 262.58 12.10L262.58 12.10Q263.30 12.10 263.87 12.58Q264.44 13.06 264.44 13.94Z"></path></g></svg></svg>