<?xml version="1.0" standalone="no"?>
<!DOCTYPE svg PUBLIC "-//W3C//DTD SVG 20010904//EN"
 "http://www.w3.org/TR/2001/REC-SVG-20010904/DTD/svg10.dtd">
<svg version="1.0" xmlns="http://www.w3.org/2000/svg"
 width="778.000000pt" height="265.000000pt" viewBox="0 0 778.000000 265.000000"
 preserveAspectRatio="xMidYMid meet">

<g transform="translate(0.000000,265.000000) scale(0.100000,-0.100000)"
fill="#000000" stroke="none">
<path d="M4589 2635 c-3 -2 -22 -5 -44 -7 -22 -2 -45 -6 -50 -9 -6 -3 -32 -12
-60 -19 -56 -15 -182 -78 -235 -118 -95 -71 -184 -179 -229 -277 -13 -27 -27
-58 -32 -67 -19 -37 -40 -172 -42 -263 -1 -68 30 -232 53 -273 5 -10 17 -35
26 -57 10 -22 37 -68 61 -103 l44 -62 -24 -53 c-13 -28 -34 -79 -46 -112 -12
-33 -27 -68 -32 -77 -26 -49 -2 -98 48 -98 18 0 224 100 275 134 19 12 34 15
50 10 13 -4 28 -9 33 -11 6 -1 35 -10 65 -20 48 -15 100 -17 397 -18 188 0
345 4 349 8 5 4 10 39 12 77 4 59 2 69 -14 78 -11 5 -140 10 -294 11 -276 2
-295 3 -360 16 -19 4 -39 8 -45 9 -12 2 -69 24 -112 42 -54 24 -183 133 -183
154 0 6 -4 10 -9 10 -5 0 -12 8 -15 18 -4 9 -18 37 -31 62 -14 25 -25 52 -25
61 0 9 -3 19 -7 23 -18 18 -31 110 -29 201 3 110 30 197 86 285 53 83 158 170
255 212 56 25 80 31 160 44 17 3 161 7 320 11 160 3 292 7 295 9 10 11 11 133
1 152 -11 21 -16 22 -310 21 -164 0 -300 -2 -302 -4z"/>
<path d="M5382 2533 c-27 -5 -52 -51 -51 -95 0 -28 10 -41 65 -88 35 -30 68
-57 72 -60 18 -12 91 -118 116 -167 74 -149 68 -373 -15 -514 -49 -85 -75
-115 -160 -185 -73 -61 -79 -69 -79 -104 0 -23 8 -48 21 -65 19 -23 27 -26 65
-22 142 14 357 286 390 495 23 143 4 338 -43 446 -64 146 -187 292 -292 346
-40 20 -47 21 -89 13z"/>
<path d="M1170 1029 c-35 -14 -40 -26 -40 -102 0 -84 10 -104 56 -113 42 -8
145 11 156 29 10 15 10 148 0 163 -19 29 -122 43 -172 23z"/>
<path d="M3140 1031 l-25 -7 -5 -214 c-3 -118 -5 -341 -5 -495 l0 -280 106 -3
106 -3 6 83 c4 46 7 135 7 199 0 107 2 117 23 137 51 48 135 51 183 7 24 -22
24 -23 24 -224 l0 -201 110 0 110 0 0 193 c0 227 -11 285 -69 362 -50 66 -122
106 -207 113 -55 4 -68 1 -107 -21 -25 -15 -48 -34 -51 -43 -15 -40 -21 9 -18
161 5 190 0 218 -34 234 -27 12 -114 13 -154 2z"/>
<path d="M6165 1029 c-11 -7 -23 -17 -27 -23 -4 -6 -8 -89 -8 -183 0 -95 -4
-173 -9 -173 -4 0 -21 10 -36 21 -34 27 -144 37 -201 19 -80 -26 -167 -120
-197 -215 -24 -75 -18 -186 14 -255 52 -110 165 -190 268 -190 55 0 131 26
146 49 4 8 18 2 41 -19 32 -28 41 -30 109 -30 40 0 76 3 78 8 3 4 7 220 8 479
4 471 4 473 -17 494 -26 26 -136 37 -169 18z m-107 -550 c40 -14 65 -53 65
-103 0 -83 -37 -125 -112 -128 -75 -3 -126 54 -117 130 7 55 31 90 70 101 43
13 58 13 94 0z"/>
<path d="M2638 934 c-45 -19 -52 -45 -46 -158 l3 -75 -55 -3 -55 -3 0 -100 0
-100 55 -3 55 -3 0 -127 c1 -160 18 -224 74 -275 47 -42 106 -57 226 -57 l85
0 0 100 0 100 -80 0 -80 0 0 108 c0 59 -3 117 -6 129 -6 22 -4 22 92 25 l99 3
3 103 3 102 -98 0 -98 0 0 106 c0 99 -1 107 -24 125 -29 23 -100 25 -153 3z"/>
<path d="M5139 710 c-31 -10 -72 -26 -90 -35 -47 -24 -117 -99 -148 -160 -35
-69 -37 -204 -3 -279 48 -105 125 -173 237 -209 88 -27 179 -15 282 38 39 20
111 99 128 140 39 95 37 90 38 172 0 155 -99 286 -248 328 -83 23 -135 25
-196 5z m166 -230 c68 -42 80 -145 22 -203 -41 -41 -122 -49 -174 -17 -37 22
-50 43 -53 85 -4 62 1 84 26 114 43 51 117 60 179 21z"/>
<path d="M6770 723 c-73 -11 -171 -56 -218 -102 -72 -70 -102 -138 -103 -237
-2 -94 12 -151 53 -219 38 -64 101 -112 180 -137 52 -16 82 -19 173 -15 126 6
177 19 211 52 30 30 32 87 4 133 -22 35 -47 40 -110 22 -45 -13 -188 -14 -220
-2 -33 13 -70 49 -70 67 0 13 28 15 173 15 94 0 188 5 208 10 108 30 100 239
-13 339 -57 50 -187 86 -268 74z m130 -223 c11 -11 20 -29 20 -39 0 -37 -27
-51 -101 -52 -170 -3 -165 -5 -126 51 38 57 165 82 207 40z"/>
<path d="M7399 711 c-89 -19 -153 -72 -165 -137 -4 -20 -4 -65 -1 -100 9 -123
67 -167 279 -214 65 -15 77 -31 43 -58 -29 -23 -73 -20 -154 9 -89 33 -127 43
-144 36 -21 -8 -43 -52 -52 -104 -6 -40 -5 -43 27 -63 64 -40 166 -64 263 -63
209 2 306 101 271 278 -17 85 -64 119 -224 161 -137 37 -144 42 -117 77 19 26
93 25 160 -2 66 -27 82 -26 120 12 38 38 47 86 22 119 -28 36 -241 68 -328 49z"/>
<path d="M324 700 c-12 -4 -31 -24 -42 -44 -29 -49 -57 -48 -69 2 l-9 37 -84
3 c-71 2 -87 0 -97 -14 -10 -14 -13 -95 -13 -336 l0 -318 109 0 110 0 3 215
c2 159 6 217 16 227 14 14 126 18 139 4 4 -4 10 -105 13 -224 l5 -217 108 -3
c105 -3 107 -2 109 20 0 13 2 28 3 33 2 6 3 92 4 192 1 205 4 213 71 213 27 0
48 -8 67 -24 l28 -24 0 -204 0 -203 106 -3 106 -3 7 47 c18 137 -1 422 -34
498 -38 88 -142 146 -237 131 -39 -6 -56 -16 -96 -56 -63 -65 -69 -64 -125 9
-33 43 -139 66 -198 42z"/>
<path d="M1495 696 c-67 -29 -71 -76 -17 -206 17 -41 65 -158 106 -260 42
-102 84 -191 93 -198 9 -6 39 -12 65 -12 67 0 86 23 133 166 57 168 57 168 95
44 57 -182 78 -210 156 -210 67 0 63 -5 190 295 58 139 104 275 104 310 0 16
-11 38 -29 56 -26 26 -36 29 -90 29 -58 0 -62 -2 -80 -30 -10 -17 -26 -61 -35
-98 -10 -37 -21 -76 -26 -87 -5 -11 -14 -37 -20 -57 -16 -53 -27 -55 -40 -6
-32 127 -65 219 -87 242 -20 22 -32 26 -82 26 -79 0 -93 -15 -136 -153 -19
-61 -42 -123 -49 -137 -14 -24 -14 -23 -31 35 -9 33 -31 105 -49 160 l-32 100
-55 2 c-30 2 -68 -3 -84 -11z"/>
<path d="M4410 687 c-30 -12 -56 -25 -58 -29 -2 -4 -8 -8 -14 -8 -17 0 -85
-74 -107 -116 -11 -22 -26 -71 -32 -110 -11 -61 -10 -81 4 -140 31 -126 96
-196 225 -244 56 -21 140 -24 209 -7 37 9 109 44 131 63 51 44 7 163 -70 193
-21 8 -37 4 -85 -19 -67 -34 -81 -35 -128 -16 -66 28 -88 109 -48 177 38 66
95 75 188 30 54 -26 63 -27 86 -15 46 23 92 107 81 148 -19 69 -100 107 -242
112 -68 2 -96 -2 -140 -19z"/>
<path d="M1130 365 l0 -335 110 0 110 0 -2 332 -3 333 -107 3 -108 3 0 -336z"/>
<path d="M3920 250 l-35 -5 -3 -75 c-2 -41 0 -90 3 -107 l6 -33 109 0 110 0 0
105 c0 76 -4 107 -12 110 -22 7 -142 10 -178 5z"/>
</g>
</svg>
