<svg xmlns="http://www.w3.org/2000/svg" version="1.1" xmlns:xlink="http://www.w3.org/1999/xlink" xmlns:svgjs="http://svgjs.dev/svgjs" width="2000" height="282" viewBox="0 0 2000 282"><g transform="matrix(1,0,0,1,-1.2121212121212466,0.38264325424509593)"><svg viewBox="0 0 396 56" data-background-color="#ffffff" preserveAspectRatio="xMidYMid meet" height="282" width="2000" xmlns="http://www.w3.org/2000/svg" xmlns:xlink="http://www.w3.org/1999/xlink"><g id="tight-bounds" transform="matrix(1,0,0,1,0.2400000000000091,-0.07598589446001824)"><svg viewBox="0 0 395.52 56.15197178892006" height="56.15197178892006" width="395.52"><g><svg viewBox="0 0 526.7571603093081 74.78371057165229" height="56.15197178892006" width="395.52"><g><rect width="6.710519598150164" height="74.78371057165229" x="106.95983548039834" y="0" fill="#ee3e38" opacity="1" stroke-width="0" stroke="transparent" fill-opacity="1" class="rect-qz-0" data-fill-palette-color="primary" rx="1%" id="qz-0" data-palette-color="#ee3e38"></rect></g><g transform="matrix(1,0,0,1,131.2371603093081,0.1860291307752533)"><svg viewBox="0 0 395.52 74.41165231010179" height="74.41165231010179" width="395.52"><g id="textblocktransform"><svg viewBox="0 0 395.52 74.41165231010179" height="74.41165231010179" width="395.52" id="textblock"><g><svg viewBox="0 0 395.52 74.41165231010179" height="74.41165231010179" width="395.52"><g transform="matrix(1,0,0,1,0,0)"><svg width="395.52" viewBox="2.55 -38.8 255.38 48.05" height="74.41165231010179" data-palette-color="#ee3e38"><path d="M15.3 0.6L15.3 0.6Q12.15 0.6 9.78-0.4 7.4-1.4 5.78-3.2 4.15-5 3.35-7.48 2.55-9.95 2.55-12.95L2.55-12.95Q2.55-15.95 3.43-18.45 4.3-20.95 5.9-22.78 7.5-24.6 9.83-25.63 12.15-26.65 15-26.65L15-26.65Q16.75-26.65 18.5-26.35 20.25-26.05 21.85-25.4L21.85-25.4 20.8-21.45Q19.75-21.95 18.38-22.25 17-22.55 15.45-22.55L15.45-22.55Q11.55-22.55 9.47-20.1 7.4-17.65 7.4-12.95L7.4-12.95Q7.4-10.85 7.88-9.1 8.35-7.35 9.38-6.1 10.4-4.85 12-4.17 13.6-3.5 15.9-3.5L15.9-3.5Q17.75-3.5 19.25-3.85 20.75-4.2 21.6-4.6L21.6-4.6 22.25-0.7Q21.85-0.45 21.1-0.23 20.35 0 19.4 0.18 18.45 0.35 17.38 0.48 16.3 0.6 15.3 0.6ZM31.9 0L27.25 0 27.25-38 31.9-38.8 31.9-25.5Q33.2-26 34.67-26.28 36.15-26.55 37.6-26.55L37.6-26.55Q40.7-26.55 42.75-25.68 44.8-24.8 46.02-23.23 47.25-21.65 47.75-19.45 48.25-17.25 48.25-14.6L48.25-14.6 48.25 0 43.6 0 43.6-13.6Q43.6-16 43.27-17.7 42.95-19.4 42.2-20.45 41.45-21.5 40.2-21.98 38.95-22.45 37.1-22.45L37.1-22.45Q36.35-22.45 35.55-22.35 34.75-22.25 34.02-22.13 33.3-22 32.72-21.85 32.15-21.7 31.9-21.6L31.9-21.6 31.9 0ZM64.59-3.35L64.59-3.35Q66.25-3.35 67.52-3.43 68.8-3.5 69.65-3.7L69.65-3.7 69.65-11.45Q69.15-11.7 68.02-11.88 66.9-12.05 65.3-12.05L65.3-12.05Q64.25-12.05 63.07-11.9 61.9-11.75 60.92-11.28 59.95-10.8 59.3-9.98 58.65-9.15 58.65-7.8L58.65-7.8Q58.65-5.3 60.25-4.33 61.84-3.35 64.59-3.35ZM64.2-26.65L64.2-26.65Q67-26.65 68.92-25.93 70.84-25.2 72.02-23.88 73.2-22.55 73.7-20.73 74.2-18.9 74.2-16.7L74.2-16.7 74.2-0.45Q73.59-0.35 72.52-0.18 71.45 0 70.09 0.15 68.75 0.3 67.17 0.43 65.59 0.55 64.05 0.55L64.05 0.55Q61.84 0.55 60 0.1 58.15-0.35 56.8-1.33 55.45-2.3 54.7-3.9 53.95-5.5 53.95-7.75L53.95-7.75Q53.95-9.9 54.82-11.45 55.7-13 57.2-13.95 58.7-14.9 60.7-15.35 62.7-15.8 64.9-15.8L64.9-15.8Q65.59-15.8 66.34-15.73 67.09-15.65 67.77-15.53 68.45-15.4 68.95-15.3 69.45-15.2 69.65-15.15L69.65-15.15 69.65-16.45Q69.65-17.6 69.4-18.73 69.15-19.85 68.5-20.73 67.84-21.6 66.72-22.13 65.59-22.65 63.8-22.65L63.8-22.65Q61.5-22.65 59.77-22.33 58.05-22 57.2-21.65L57.2-21.65 56.65-25.5Q57.55-25.9 59.65-26.28 61.75-26.65 64.2-26.65ZM91.49-26.55L91.49-26.55Q92.09-26.55 92.87-26.48 93.64-26.4 94.39-26.28 95.14-26.15 95.77-26.03 96.39-25.9 96.69-25.8L96.69-25.8 95.89-21.75Q95.34-21.95 94.07-22.23 92.79-22.5 90.79-22.5L90.79-22.5Q89.49-22.5 88.22-22.23 86.94-21.95 86.54-21.85L86.54-21.85 86.54 0 81.89 0 81.89-24.9Q83.54-25.5 85.99-26.03 88.44-26.55 91.49-26.55ZM101.19 0L101.19-25.25Q102.79-25.65 105.42-26.1 108.04-26.55 111.49-26.55L111.49-26.55Q113.99-26.55 115.69-25.88 117.39-25.2 118.54-23.9L118.54-23.9Q118.89-24.15 119.64-24.6 120.39-25.05 121.49-25.48 122.59-25.9 123.94-26.23 125.29-26.55 126.84-26.55L126.84-26.55Q129.84-26.55 131.74-25.68 133.64-24.8 134.72-23.2 135.79-21.6 136.17-19.4 136.54-17.2 136.54-14.6L136.54-14.6 136.54 0 131.89 0 131.89-13.6Q131.89-15.9 131.67-17.55 131.44-19.2 130.81-20.3 130.19-21.4 129.12-21.93 128.04-22.45 126.34-22.45L126.34-22.45Q123.99-22.45 122.47-21.83 120.94-21.2 120.39-20.7L120.39-20.7Q120.79-19.4 120.99-17.85 121.19-16.3 121.19-14.6L121.19-14.6 121.19 0 116.54 0 116.54-13.6Q116.54-15.9 116.29-17.55 116.04-19.2 115.42-20.3 114.79-21.4 113.72-21.93 112.64-22.45 110.99-22.45L110.99-22.45Q110.29-22.45 109.49-22.4 108.69-22.35 107.97-22.28 107.24-22.2 106.64-22.1 106.04-22 105.84-21.95L105.84-21.95 105.84 0 101.19 0ZM162.29-12.95L162.29-12.95Q162.29-17.5 160.04-19.95 157.79-22.4 154.04-22.4L154.04-22.4Q151.94-22.4 150.76-22.25 149.59-22.1 148.89-21.9L148.89-21.9 148.89-5.5Q149.74-4.8 151.34-4.15 152.94-3.5 154.84-3.5L154.84-3.5Q156.84-3.5 158.26-4.23 159.69-4.95 160.59-6.23 161.49-7.5 161.89-9.22 162.29-10.95 162.29-12.95ZM167.14-12.95L167.14-12.95Q167.14-10 166.36-7.5 165.59-5 164.09-3.2 162.59-1.4 160.41-0.4 158.24 0.6 155.44 0.6L155.44 0.6Q153.19 0.6 151.46 0 149.74-0.6 148.89-1.15L148.89-1.15 148.89 9.25 144.24 9.25 144.24-25.2Q145.89-25.6 148.36-26.08 150.84-26.55 154.09-26.55L154.09-26.55Q157.09-26.55 159.49-25.6 161.89-24.65 163.59-22.9 165.29-21.15 166.21-18.63 167.14-16.1 167.14-12.95ZM182.13-3.4L181.49 0.5Q177.19 0.4 175.38-1.35 173.59-3.1 173.59-6.8L173.59-6.8 173.59-38 178.24-38.8 178.24-7.55Q178.24-6.4 178.44-5.65 178.63-4.9 179.09-4.45 179.53-4 180.28-3.78 181.03-3.55 182.13-3.4L182.13-3.4ZM196.13-3.35L196.13-3.35Q197.78-3.35 199.06-3.43 200.33-3.5 201.18-3.7L201.18-3.7 201.18-11.45Q200.68-11.7 199.56-11.88 198.43-12.05 196.83-12.05L196.83-12.05Q195.78-12.05 194.61-11.9 193.43-11.75 192.46-11.28 191.48-10.8 190.83-9.98 190.18-9.15 190.18-7.8L190.18-7.8Q190.18-5.3 191.78-4.33 193.38-3.35 196.13-3.35ZM195.73-26.65L195.73-26.65Q198.53-26.65 200.46-25.93 202.38-25.2 203.56-23.88 204.73-22.55 205.23-20.73 205.73-18.9 205.73-16.7L205.73-16.7 205.73-0.45Q205.13-0.35 204.06-0.18 202.98 0 201.63 0.15 200.28 0.3 198.71 0.43 197.13 0.55 195.58 0.55L195.58 0.55Q193.38 0.55 191.53 0.1 189.68-0.35 188.33-1.33 186.98-2.3 186.23-3.9 185.48-5.5 185.48-7.75L185.48-7.75Q185.48-9.9 186.36-11.45 187.23-13 188.73-13.95 190.23-14.9 192.23-15.35 194.23-15.8 196.43-15.8L196.43-15.8Q197.13-15.8 197.88-15.73 198.63-15.65 199.31-15.53 199.98-15.4 200.48-15.3 200.98-15.2 201.18-15.15L201.18-15.15 201.18-16.45Q201.18-17.6 200.93-18.73 200.68-19.85 200.03-20.73 199.38-21.6 198.26-22.13 197.13-22.65 195.33-22.65L195.33-22.65Q193.03-22.65 191.31-22.33 189.58-22 188.73-21.65L188.73-21.65 188.18-25.5Q189.08-25.9 191.18-26.28 193.28-26.65 195.73-26.65ZM224.73 0.6L224.73 0.6Q221.58 0.6 219.21-0.4 216.83-1.4 215.21-3.2 213.58-5 212.78-7.48 211.98-9.95 211.98-12.95L211.98-12.95Q211.98-15.95 212.86-18.45 213.73-20.95 215.33-22.78 216.93-24.6 219.25-25.63 221.58-26.65 224.43-26.65L224.43-26.65Q226.18-26.65 227.93-26.35 229.68-26.05 231.28-25.4L231.28-25.4 230.23-21.45Q229.18-21.95 227.81-22.25 226.43-22.55 224.88-22.55L224.88-22.55Q220.98-22.55 218.91-20.1 216.83-17.65 216.83-12.95L216.83-12.95Q216.83-10.85 217.31-9.1 217.78-7.35 218.81-6.1 219.83-4.85 221.43-4.17 223.03-3.5 225.33-3.5L225.33-3.5Q227.18-3.5 228.68-3.85 230.18-4.2 231.03-4.6L231.03-4.6 231.68-0.7Q231.28-0.45 230.53-0.23 229.78 0 228.83 0.18 227.88 0.35 226.81 0.48 225.73 0.6 224.73 0.6ZM235.23-12.95L235.23-12.95Q235.23-16.4 236.23-18.98 237.23-21.55 238.88-23.25 240.53-24.95 242.68-25.8 244.83-26.65 247.08-26.65L247.08-26.65Q252.33-26.65 255.13-23.38 257.93-20.1 257.93-13.4L257.93-13.4Q257.93-13.1 257.93-12.63 257.93-12.15 257.88-11.75L257.88-11.75 240.08-11.75Q240.38-7.7 242.43-5.6 244.48-3.5 248.83-3.5L248.83-3.5Q251.28-3.5 252.95-3.93 254.63-4.35 255.48-4.75L255.48-4.75 256.13-0.85Q255.28-0.4 253.15 0.1 251.03 0.6 248.33 0.6L248.33 0.6Q244.93 0.6 242.45-0.43 239.98-1.45 238.38-3.25 236.78-5.05 236-7.53 235.23-10 235.23-12.95ZM240.18-15.5L253.08-15.5Q253.13-18.65 251.5-20.68 249.88-22.7 247.03-22.7L247.03-22.7Q245.43-22.7 244.2-22.08 242.98-21.45 242.13-20.45 241.28-19.45 240.8-18.15 240.33-16.85 240.18-15.5L240.18-15.5Z" opacity="1" transform="matrix(1,0,0,1,0,0)" fill="#ee3e38" class="wordmark-text-0" data-fill-palette-color="primary" id="text-0"></path></svg></g></svg></g></svg></g></svg></g><g transform="matrix(1,0,0,1,0,0.1860291307752533)"><svg viewBox="0 0 89.39303024963876 74.41165231010179" height="74.41165231010179" width="89.39303024963876"><g><svg version="1.1" xmlns="http://www.w3.org/2000/svg" xmlns:xlink="http://www.w3.org/1999/xlink" x="0" y="0" viewBox="0.23999999999999666 0 100.00000000000001 83.241" enable-background="new 0.24 12.616 100 70.625" xml:space="preserve" width="89.39303024963876" height="74.41165231010179" class="icon-icon-0" data-fill-palette-color="accent" id="icon-0"><rect x="41.932" y="19.744" width="39.071" height="6.451" fill="#ee3e38" data-fill-palette-color="accent"></rect><polyline points="41.811,20.405 38.457,20.405 43.969,12.616 78.844,12.616 84.479,20.405 80.882,20.405 " fill="#ee3e38" data-fill-palette-color="accent"></polyline><line fill="none" x1="86.621" y1="34.698" x2="91.972" y2="34.698"></line><rect x="86.621" y="32.9" width="5.351" height="3.596" fill="#ee3e38" data-fill-palette-color="accent"></rect><path d="M100.24 62.654H89.813V31.912h10.427V62.654zM91.972 60.496h6.111V34.069h-6.111V60.496z" fill="#ee3e38" data-fill-palette-color="accent"></path><path d="M87.028 25.369H35.59V82.98h15.431V71.664h9.26V82.98h3.086V71.664h8.23V82.98h15.431V25.369zM57.194 62.405H41.763v-7.202h15.431V62.405zM57.194 51.088H41.763v-7.201h15.431V51.088zM57.194 38.743H41.763v-7.201h15.431V38.743zM80.856 62.405H65.425v-7.202h15.432V62.405zM80.856 51.088H65.425v-7.201h15.432V51.088zM80.856 38.743H65.425v-7.201h15.432V38.743z" fill="#ee3e38" data-fill-palette-color="accent"></path><path d="M26.194 83.241c0 0 2.674-11.427-1.626-18.217-4.3-6.791-8.034-7.814-8.996-8.151-2.198-0.768-8.874 5.639-8.316 11.094-2.77-3.756-3.514-11.706 2.729-14.668-1.922-1.134-6.963 1.151-9.745 3.578 0-4.864 5.26-9.927 10.871-8.976 0.873-1.204 1.244-8.532 12.312-8.806-4.337 2.223-7.23 7.445-6.896 9.483 0.418-0.53 8.829-6.921 16.289 3.281-4.765-1.664-10.517-1.664-13.229 2.528 16.068 7.468 11.51 28.846 11.03 28.851C29.868 83.241 26.194 83.241 26.194 83.241z" fill="#ee3e38" data-fill-palette-color="accent"></path></svg></g></svg></g></svg></g><defs></defs></svg><rect width="395.52" height="56.15197178892006" fill="none" stroke="none" visibility="hidden"></rect></g></svg></g></svg>